<svg xmlns="http://www.w3.org/2000/svg" viewBox="0 0 520 520" width="520" height="520" role="img" aria-label="Foto real 2 (520x520)">
  <rect width="520" height="520" fill="#E8F3FF"/>
  <circle cx="86" cy="104" r="104" fill="#0251AF" opacity=".38"/>
  <circle cx="433" cy="416" r="130" fill="#7AB80A" opacity=".30"/>
  <circle cx="416" cy="86" r="57" fill="#0251AF" opacity=".22"/>
  <svg x="151" y="114" width="218" height="218" viewBox="0 0 120 120">
  <path d="M50 94v13M70 94v13M43 107h13M64 107h13" stroke="#F68404" stroke-width="5" stroke-linecap="round"/>
  <path d="M60 22c-3-8 3-15 11-15-5 5-5 11-1 15z" fill="#0251AF"/>
  <ellipse cx="60" cy="60" rx="38" ry="36" fill="#0251AF"/>
  <ellipse cx="60" cy="72" rx="22" ry="20" fill="#A8D3FF"/>
  <path d="M88 52c10 3 15 13 11 22-3 7-11 10-19 8 6-9 9-20 8-30z" fill="#023E86"/>
  <circle cx="48" cy="52" r="6.5" fill="#FFFFFF"/>
  <circle cx="72" cy="52" r="6.5" fill="#FFFFFF"/>
  <circle cx="49" cy="53" r="3.2" fill="#1E2A32"/>
  <circle cx="73" cy="53" r="3.2" fill="#1E2A32"/>
  <path d="M60 60l11 7-11 7-11-7z" fill="#F68404"/>
  <circle cx="36" cy="64" r="5" fill="#F75265" opacity=".45"/>
  <circle cx="84" cy="64" r="5" fill="#F75265" opacity=".45"/>
  </svg>
  <text x="260" y="374" text-anchor="middle" font-family="Verdana,DejaVu Sans,sans-serif" font-size="21" font-weight="bold" fill="#1E2A32" opacity=".85">[COMPLETAR]</text>
  <text x="260" y="402" text-anchor="middle" font-family="Verdana,DejaVu Sans,sans-serif" font-size="15" fill="#1E2A32" opacity=".65">Foto real 2 (520x520)</text>
  <rect x="10" y="10" width="500" height="500" rx="33" fill="none" stroke="#FFFFFF" stroke-width="5" stroke-dasharray="16 13" opacity=".85"/>
</svg>
