<svg xmlns="http://www.w3.org/2000/svg" viewBox="0 0 1200 630" width="1200" height="630" role="img" aria-label="Pininos Pasitos Firmes, estimulacion temprana y maternal en Puebla">
  <rect width="1200" height="630" fill="#F3E7D3"/>
  <circle cx="110" cy="100" r="120" fill="#FDC652" opacity=".45"/>
  <circle cx="1120" cy="560" r="160" fill="#7AB80A" opacity=".30"/>
  <circle cx="1060" cy="90" r="70" fill="#F68404" opacity=".35"/>
  <circle cx="150" cy="560" r="80" fill="#0251AF" opacity=".20"/>
  <svg x="880" y="170" width="290" height="290" viewBox="0 0 120 120">
  <ellipse cx="26" cy="96" rx="17" ry="9" fill="#6AA309"/>
  <ellipse cx="94" cy="96" rx="17" ry="9" fill="#6AA309"/>
  <path d="M60 22c-24 0-41 18-41 42 0 20 18 34 41 34s41-14 41-34c0-24-17-42-41-42z" fill="#7AB80A"/>
  <circle cx="40" cy="31" r="16" fill="#7AB80A"/>
  <circle cx="80" cy="31" r="16" fill="#7AB80A"/>
  <circle cx="40" cy="31" r="11" fill="#FFFFFF"/>
  <circle cx="80" cy="31" r="11" fill="#FFFFFF"/>
  <circle cx="42" cy="33" r="5.5" fill="#1E2A32"/>
  <circle cx="78" cy="33" r="5.5" fill="#1E2A32"/>
  <circle cx="44" cy="31" r="2" fill="#FFFFFF"/>
  <circle cx="80" cy="31" r="2" fill="#FFFFFF"/>
  <ellipse cx="60" cy="76" rx="26" ry="19" fill="#DCF0A6"/>
  <path d="M46 58q14 14 28 0" stroke="#3C5A05" stroke-width="4.5" fill="none" stroke-linecap="round"/>
  <circle cx="33" cy="60" r="5" fill="#F75265" opacity=".45"/>
  <circle cx="87" cy="60" r="5" fill="#F75265" opacity=".45"/>
  </svg>
  <g font-family="Verdana,DejaVu Sans,sans-serif" font-weight="bold">
    <text x="90" y="250" font-size="104" letter-spacing="4">
      <tspan fill="#F75265">P</tspan><tspan fill="#0251AF">I</tspan><tspan fill="#7AB80A">N</tspan><tspan fill="#F68404">I</tspan><tspan fill="#FDC652">N</tspan><tspan fill="#0251AF">O</tspan><tspan fill="#F75265">S</tspan>
    </text>
    <text x="94" y="300" font-size="34" letter-spacing="10" fill="#1E2A32">PASITOS FIRMES</text>
    <text x="90" y="400" font-size="40" fill="#1E2A32">Estimulacion temprana y maternal</text>
    <text x="90" y="452" font-size="40" fill="#1E2A32">en Puebla</text>
    <rect x="90" y="500" width="430" height="74" rx="37" fill="#DC2B43"/>
    <text x="305" y="548" font-size="32" fill="#FFFFFF" text-anchor="middle">Agenda tu dia de prueba</text>
  </g>
</svg>
