<svg xmlns="http://www.w3.org/2000/svg" viewBox="0 0 540 960" width="540" height="960" role="img" aria-label="Talleres de arte (540x960)">
  <rect width="540" height="960" fill="#FDEFF1"/>
  <circle cx="90" cy="192" r="108" fill="#F75265" opacity=".38"/>
  <circle cx="450" cy="768" r="135" fill="#FDC652" opacity=".30"/>
  <circle cx="432" cy="160" r="60" fill="#F75265" opacity=".22"/>
  <svg x="157" y="299" width="226" height="226" viewBox="0 0 120 120">
  <ellipse cx="26" cy="96" rx="17" ry="9" fill="#6AA309"/>
  <ellipse cx="94" cy="96" rx="17" ry="9" fill="#6AA309"/>
  <path d="M60 22c-24 0-41 18-41 42 0 20 18 34 41 34s41-14 41-34c0-24-17-42-41-42z" fill="#7AB80A"/>
  <circle cx="40" cy="31" r="16" fill="#7AB80A"/>
  <circle cx="80" cy="31" r="16" fill="#7AB80A"/>
  <circle cx="40" cy="31" r="11" fill="#FFFFFF"/>
  <circle cx="80" cy="31" r="11" fill="#FFFFFF"/>
  <circle cx="42" cy="33" r="5.5" fill="#1E2A32"/>
  <circle cx="78" cy="33" r="5.5" fill="#1E2A32"/>
  <circle cx="44" cy="31" r="2" fill="#FFFFFF"/>
  <circle cx="80" cy="31" r="2" fill="#FFFFFF"/>
  <ellipse cx="60" cy="76" rx="26" ry="19" fill="#DCF0A6"/>
  <path d="M46 58q14 14 28 0" stroke="#3C5A05" stroke-width="4.5" fill="none" stroke-linecap="round"/>
  <circle cx="33" cy="60" r="5" fill="#F75265" opacity=".45"/>
  <circle cx="87" cy="60" r="5" fill="#F75265" opacity=".45"/>
  </svg>
  <text x="270" y="569" text-anchor="middle" font-family="Verdana,DejaVu Sans,sans-serif" font-size="22" font-weight="bold" fill="#1E2A32" opacity=".85">[COMPLETAR] Poster video 3</text>
  <text x="270" y="598" text-anchor="middle" font-family="Verdana,DejaVu Sans,sans-serif" font-size="15" fill="#1E2A32" opacity=".65">Talleres de arte (540x960)</text>
  <rect x="10" y="10" width="520" height="940" rx="34" fill="none" stroke="#FFFFFF" stroke-width="5" stroke-dasharray="16 13" opacity=".85"/>
</svg>
